<svg xmlns="http://www.w3.org/2000/svg"><defs>
<symbol id="button-right" viewBox="0 0 32 32">
  <path d="m21.5906,25.5526c1.6001-.9643,2.8178-2.2838,3.6549-3.9585.8362-1.6729,1.2545-3.5483,1.2545-5.6225s-.4365-3.9479-1.3091-5.6225c-.873-1.6729-2.1-2.9835-3.682-3.9301-1.5819-.9466-3.4278-1.419-5.5362-1.419-2.073,0-3.9095.4724-5.5092,1.419-1.6005.9466-2.828,2.2572-3.682,3.9301-.8548,1.6747-1.2816,3.5483-1.2816,5.6225s.409,3.9496,1.227,5.6225c.818,1.6747,2.0268,2.9942,3.6274,3.9585,1.5997.9643,3.4721,1.4474,5.6183,1.4474s4.0173-.483,5.6179-1.4474Z"/>
</symbol>
<symbol id="button-download" viewBox="0 0 32 32">
  <polygon points="21.2346 15.9991 20.3998 15.1643 17.0078 18.5569 17.0078 11.1817 15.8272 11.1817 15.8272 18.5569 12.4346 15.1643 11.5998 15.9991 16.4175 20.8165 21.2346 15.9991"/>
</symbol>
<symbol id="button-demo" viewBox="0 0 32 32">
  <polygon points="13.0108 12.5928 13.0108 13.7734 17.8082 13.773 12.5932 18.988 13.428 19.8228 18.6431 14.6078 18.6431 19.4056 19.8237 19.4056 19.8235 12.5926 13.0108 12.5928"/>
</symbol>
</defs></svg>
