<?xml version="1.0" encoding="UTF-8"?>
<svg width="100%" height="100%" version="1.0" xmlns="http://www.w3.org/2000/svg" xmlns:xlink="http://www.w3.org/1999/xlink" viewBox="0 0 160 32" preserveAspectRatio="xMidYMid meet">
  <path class="button-bg" d="m16.0027,32c-3.2782,0-6.1747-.7484-8.6094-2.2242-2.4331-1.4758-4.2955-3.4302-5.5355-5.811-1.2325-2.3681-1.8578-4.8928-1.8578-7.5035v-.9219c0-2.6144.6445-5.1402,1.9156-7.509,1.2735-2.3753,3.153-4.3286,5.5864-5.8055C9.9373.7484,12.7973,0,16.0027,0h127.9407c3.2418,0,6.1115.749,8.5293,2.226,2.4133,1.4758,4.2916,3.4279,5.5832,5.8014,1.29,2.3699,1.9442,4.897,1.9442,7.512v-.9219c0,2.6114-.6346,5.1373-1.8864,7.5066-1.2581,2.3789-3.1196,4.3322-5.5322,5.8068-2.4175,1.4764-5.3237,2.2254-8.638,2.2254H16.0027Z" fill="none" stroke="#000" stroke-miterlimit="10" />
</svg>
