<?xml version="1.0" encoding="UTF-8"?>
<svg id="Vrstva_1" data-name="Vrstva 1" xmlns="http://www.w3.org/2000/svg" viewBox="0 0 144.5 32">
  <defs>
    <style>
      .cls-1 {
        fill: transparent;
      }
      .logo-color {
        fill: #ffffff;
      }
    </style>
  </defs>
  <rect class="cls-1" width="144.5" height="32"/>
  <g class="logo-color">
    <path d="m13.457,7.7811c-1.2916-.8087-2.8578-1.2119-4.6991-1.2119-1.9089,0-3.52.4372-4.8336,1.3127-1.3138.8766-2.2965,2.0217-2.9473,3.4363-.6518,1.4147-.977,2.9302-.977,4.5475v.572c0,1.5954.32,3.0988.9599,4.5146.6402,1.4146,1.6338,2.5652,2.9811,3.4517,1.3476.8876,3.0201,1.3314,5.0191,1.3314,2.1333,0,3.9125-.5282,5.339-1.5834,1.4259-1.0552,2.3295-2.5038,2.7116-4.3458h-2.9304c-.2022.8986-.758,1.6568-1.6676,2.2737-.9092.618-2.0604.927-3.4526.927-1.3473,0-2.4647-.298-3.3515-.893-.8876-.595-1.5495-1.4026-1.9875-2.4249-.3748-.8748-.5879-1.8694-.642-2.9816h14.3348v-1.4146c0-1.5494-.32-2.986-.9599-4.3108-.6402-1.3248-1.6059-2.3921-2.897-3.2008Zm-7.9158,2.3921c.8641-.584,1.9369-.8755,3.2167-.8755,1.19,0,2.2116.2575,3.0655.7747.8531.5161,1.4873,1.2514,1.9031,2.2058.2741.6301.4559,1.3329.5492,2.105H3.1013c.1059-.6477.2721-1.2493.503-1.8015.4263-1.0223,1.072-1.8245,1.9368-2.4085Z"/>
    <polygon points="34.4927 7.1752 31.2927 7.1752 27.1159 13.9789 26.6444 13.9789 22.2316 7.1752 18.7957 7.1752 24.6822 16.0698 18.4924 25.1284 21.6927 25.1284 26.6106 17.7856 27.0821 17.7856 32.2023 25.1284 35.6381 25.1284 29.0178 15.7094 34.4927 7.1752"/>
    <polygon points="37.1876 7.1752 37.1876 9.6341 39.9498 9.6341 39.9498 25.1284 43.0488 25.1284 43.0488 9.6341 43.0488 7.1752 39.9498 7.1752 37.1876 7.1752"/>
    <path d="m40.792,4.2111c.6734,0,1.1898-.1797,1.5495-.5391.3588-.3594.5388-.8427.5388-1.4486,0-.583-.18-1.0552-.5388-1.4146-.3597-.3583-.8761-.5391-1.5495-.5391-.6739,0-1.1848.1808-1.5328.5391-.3484.3594-.5221.8427-.5221,1.4486,0,.584.1737,1.0552.5221,1.4146.348.3595.8589.5391,1.5328.5391Z"/>
    <path d="m60.1267,16.3709c-1.1232-.8755-2.6836-1.4146-4.6823-1.6173l-1.9535-.2016c-1.033-.1118-1.7911-.3759-2.2738-.7912-.483-.4153-.7241-.972-.7241-1.6677,0-.8306.3419-1.5045,1.0273-2.0206.6848-.5172,1.6338-.7747,2.8463-.7747,1.2347,0,2.1837.2465,2.8464.7407.6621.4942,1.0158,1.1341,1.0609,1.9198h2.9308c-.0452-1.7061-.6797-3.02-1.9031-3.9415-1.2243-.9205-2.8691-1.3807-4.935-1.3807-1.3253,0-2.4984.2192-3.5199.6575-1.0221.4372-1.8248,1.0662-2.4086,1.8859-.5843.8196-.8758,1.7905-.8758,2.9137,0,1.4595.5106,2.6167,1.5327,3.4692,1.0216.8536,2.4195,1.3807,4.1936,1.5834l1.9875.2016c1.2574.1348,2.1727.4164,2.7453.8427.5725.4262.8587,1.0223.8587,1.785,0,.8986-.3931,1.6283-1.1787,2.1893-.7866.5621-1.898.8427-3.3348.8427-1.5048,0-2.6222-.2871-3.3515-.8591-.7301-.5731-1.1065-1.2744-1.1287-2.105h-2.9304c.0446,1.7511.7125,3.1273,2.0041,4.1256,1.2912.9993,3.0932,1.499,5.4064,1.499,1.4369,0,2.7226-.2411,3.857-.7243,1.1337-.4821,2.0152-1.1615,2.6441-2.0381.6284-.8755.9433-1.8519.9433-2.9301,0-1.5264-.5616-2.7285-1.6843-3.604Z"/>
    <path d="m69.8613,1.6842h-2.9641v5.4909h-3.1329v2.3241h3.1329v9.6002c0,1.5275.2526,2.7449.7578,3.6544.5052.9095,1.2347,1.5659,2.1894,1.9702.9545.4043,2.1166.607,3.4863.607h2.7623v-2.7964h-3.1663c-.9656,0-1.718-.263-2.2568-.7912-.5388-.527-.8084-1.2853-.8084-2.2737v-9.9705h6.2316v-2.3241h-6.2316V1.6842Z"/>
    <path d="m91.5537,17.8864c0,1.5045-.4268,2.7011-1.2798,3.5876-.8537.8876-1.9762,1.3303-3.3685,1.3303-1.3254,0-2.3748-.4043-3.1496-1.2119-.7747-.8087-1.162-1.9319-1.162-3.3684V7.1412h-3.099v10.4428c0,2.6046.5726,4.6034,1.718,5.995,1.1451,1.3927,2.7732,2.0885,4.8842,2.0885h.1345c2.1108,0,3.7055-.7013,4.7834-2.105.5389-.7017.943-1.5618,1.2125-2.5803v4.1461h2.459V7.1412h-3.1327v10.7452Z"/>
    <path d="m101.8613,3.9416c.6736,0,1.184-.1852,1.5325-.5556.3479-.3704.5221-.8481.5221-1.4322,0-.606-.1742-1.0826-.5221-1.4311-.3485-.3485-.8589-.5227-1.5325-.5227s-1.1848.1808-1.5327.5391c-.3485.3594-.5222.8427-.5222,1.4486,0,.5841.1737,1.0552.5222,1.4147.3479.3594.8588.5391,1.5327.5391Z"/>
    <path d="m98.2907,7.1752v2.4589h2.863v16.8761c0,.8755-.2303,1.5429-.6903,2.0042-.4605.4591-1.1174.6903-1.9705.6903h-1.9202v2.7953h1.4484c1.4821,0,2.6663-.1906,3.5537-.572.887-.3824,1.5327-1.0059,1.9369-1.8694.4043-.8657.6065-2.0382.6065-3.5207V7.1752h-5.8274Z"/>
    <path d="m121.7177,7.7811c-1.2914-.8087-2.8578-1.2119-4.6987-1.2119-1.9092,0-3.5203.4372-4.8339,1.3127-1.3136.8766-2.2965,2.0217-2.9473,3.4363-.6515,1.4147-.977,2.9302-.977,4.5475v.572c0,1.5954.32,3.0988.9599,4.5146.6402,1.4146,1.6338,2.5652,2.9811,3.4517,1.3476.8876,3.0201,1.3314,5.0191,1.3314,2.1333,0,3.9128-.5282,5.339-1.5834,1.4259-1.0552,2.3297-2.5038,2.7116-4.3458h-2.9304c-.2022.8986-.758,1.6568-1.6676,2.2737-.9092.618-2.0604.927-3.4526.927-1.3473,0-2.4647-.298-3.3515-.893-.8873-.595-1.5495-1.4026-1.9875-2.4249-.3746-.8748-.5877-1.8694-.642-2.9816h14.3348v-1.4146c0-1.5494-.32-2.986-.9599-4.3108-.6402-1.3248-1.6059-2.3921-2.897-3.2008Zm-7.9158,2.3921c.8644-.584,1.9369-.8755,3.217-.8755,1.19,0,2.2112.2575,3.0652.7747.8531.5161,1.4873,1.2514,1.9031,2.2058.2742.6301.456,1.3329.5493,2.105h-11.1745c.1059-.6477.2721-1.2493.503-1.8015.4263-1.0223,1.072-1.8245,1.9368-2.4085Z"/>
    <path d="m129.5495,21.154c-.5392,0-.9884.1907-1.3476.5731-.3595.3813-.5388.8536-.5388,1.4146s.1794,1.0322.5388,1.4146c.3591.3813.8084.572,1.3476.572.5388,0,.9878-.1907,1.3473-.572.3588-.3824.5388-.8536.5388-1.4146s-.18-1.0333-.5388-1.4146c-.3595-.3824-.8084-.5731-1.3473-.5731Z"/>
    <path d="m163.9559,7.9711c-1.4637-.8788-3.1631-1.3187-5.0989-1.3187h-15.8201c-1.9361,0-3.6357.4399-5.0987,1.3187-1.4637.8799-2.5782,2.0259-3.343,3.4391-.7657,1.4143-1.1482,2.9004-1.1482,4.4581v.5671c0,1.5588.3715,3.0448,1.1144,4.458.7428,1.4143,1.8455,2.5603,3.3092,3.4391,1.4629.8799,3.185,1.3199,5.1662,1.3199h15.8201c1.9808,0,3.7027-.44,5.1664-1.3199,1.4632-.8788,2.5664-2.0248,3.3092-3.4391.7429-1.4132,1.1144-2.8992,1.1144-4.458v-.5671c0-1.5577-.3831-3.0438-1.1482-4.4581-.7656-1.4132-1.8798-2.5592-3.343-3.4391Zm.6247,11.6036c-.5067,1.0243-1.2553,1.8314-2.2456,2.4213-.9908.5898-2.15.8843-3.4781.8843s-2.4878-.2944-3.4781-.8843c-.9909-.5898-1.7447-1.397-2.2623-2.4213-.5182-1.0233-.7767-2.1704-.7767-3.4392s.2703-2.4159.8104-3.4392c.5402-1.0243,1.3001-1.826,2.2794-2.405.979-.5779,2.1214-.868,3.4273-.868,1.2833,0,2.4197.29,3.4105.868.9903.579,1.7502,1.3807,2.2794,2.405.5286,1.0233.7933,2.1704.7933,3.4392s-.2532,2.4159-.7596,3.4392Z"/>
  </g>
</svg>