<?xml version="1.0" encoding="UTF-8"?>
<svg id="Vrstva_1" data-name="Vrstva 1" xmlns="http://www.w3.org/2000/svg" viewBox="0 0 96.5 32">
  <defs>
    <style>
      .cls-1 {
        fill: transparent;
      }

      .cls-2 {
        fill: #b700ff;
      }
      .logo-color {
        fill: #ffffff;
      }
    </style>
  </defs>
  <rect class="cls-1" width="96.5" height="32"/>
    <g class="logo-color">
      <path d="m12.4559,7.9711c-1.4637-.8788-3.1631-1.3187-5.0989-1.3187h-15.8201c-1.9361,0-3.6357.4399-5.0987,1.3187-1.4637.8799-2.5782,2.0259-3.343,3.4391-.7657,1.4143-1.1482,2.9004-1.1482,4.4581v.5671c0,1.5588.3715,3.0448,1.1144,4.458.7428,1.4143,1.8455,2.5603,3.3092,3.4391,1.4629.8799,3.185,1.3199,5.1662,1.3199H7.357c1.9808,0,3.7027-.44,5.1664-1.3199,1.4632-.8788,2.5664-2.0248,3.3092-3.4391.7429-1.4132,1.1144-2.8992,1.1144-4.458v-.5671c0-1.5577-.3831-3.0438-1.1482-4.4581-.7656-1.4132-1.8798-2.5592-3.343-3.4391Zm.6247,11.6036c-.5067,1.0243-1.2553,1.8314-2.2456,2.4213-.9908.5898-2.15.8843-3.4781.8843s-2.4878-.2944-3.4781-.8843c-.9909-.5898-1.7447-1.397-2.2623-2.4213-.5182-1.0233-.7767-2.1704-.7767-3.4392s.2703-2.4159.8104-3.4392c.5402-1.0243,1.3001-1.826,2.2794-2.405.979-.5779,2.1214-.868,3.4273-.868,1.2833,0,2.4197.29,3.4105.868.9903.579,1.7502,1.3807,2.2794,2.405.5286,1.0233.7933,2.1704.7933,3.4392s-.2532,2.4159-.7596,3.4392Z"/>
      <path class="cls-2" d="m13.0806,19.5747c-.5067,1.0243-1.2553,1.8314-2.2456,2.4213-.9908.5898-2.15.8843-3.4781.8843s-2.4878-.2944-3.4781-.8843c-.9909-.5898-1.7447-1.397-2.2623-2.4213-.5182-1.0233-.7767-2.1704-.7767-3.4392s.2703-2.4159.8104-3.4392c.5402-1.0243,1.3001-1.826,2.2794-2.405.979-.5779,2.1214-.868,3.4273-.868,1.2833,0,2.4197.29,3.4105.868.9903.579,1.7502,1.3807,2.2794,2.405.5286,1.0233.7933,2.1704.7933,3.4392s-.2532,2.4159-.7596,3.4392Z"/>
    <path d="m29.7713,6.6361h-.1345c-2.2234,0-3.8906.7024-5.0023,2.105-.5655.7141-.9854,1.5941-1.2632,2.6365v-4.2024h-2.459v17.9532h3.0989v-10.7452c0-1.4596.4432-2.6386,1.3306-3.5361.887-.8985,2.0601-1.3478,3.52-1.3478,1.3695,0,2.4593.4208,3.2674,1.2634.8087.8416,1.2128,1.9823,1.2128,3.4188v10.9468h3.0989v-10.2729c0-2.6726-.5559-4.7107-1.6673-6.1145-1.1117-1.4026-2.7792-2.105-5.0023-2.105Z"/>
    <polygon points="39.1018 .5391 39.1018 2.998 41.6282 2.998 41.6282 25.1284 44.7271 25.1284 44.7271 2.998 44.7271 .5391 41.6282 .5391 39.1018 .5391"/>
    <path d="m52.104,4.2111c.6737,0,1.1901-.1797,1.5495-.5391.3589-.3594.5389-.8427.5389-1.4486,0-.583-.18-1.0552-.5389-1.4146-.3594-.3583-.8758-.5391-1.5495-.5391s-1.1848.1808-1.5327.5391c-.3482.3594-.5221.8427-.5221,1.4486,0,.584.1739,1.0552.5221,1.4146.3479.3595.8591.5391,1.5327.5391Z"/>
    <polygon points="48.4996 7.1752 48.4996 9.6341 51.2619 9.6341 51.2619 25.1284 54.3608 25.1284 54.3608 9.6341 54.3608 7.1752 51.2619 7.1752 48.4996 7.1752"/>
    <path d="m68.6432,6.6361h-.1348c-2.2231,0-3.8906.7024-5.002,2.105-.5654.7139-.9854,1.5939-1.2632,2.636v-4.2019h-2.4589v17.9532h3.0989v-10.7452c0-1.4596.4432-2.6386,1.3305-3.5361.8868-.8985,2.0601-1.3478,3.52-1.3478,1.3695,0,2.4589.4208,3.2674,1.2634.8084.8416,1.2128,1.9823,1.2128,3.4188v10.9468h3.0989v-10.2729c0-2.6726-.5559-4.7107-1.6675-6.1145-1.1114-1.4026-2.779-2.105-5.0021-2.105Z"/>
    <path d="m96.5,15.2927c0-1.5494-.32-2.986-.9599-4.3108-.6402-1.3248-1.6059-2.3921-2.897-3.2008-1.2914-.8087-2.8578-1.2119-4.6987-1.2119-1.9091,0-3.5203.4372-4.8338,1.3127-1.3136.8766-2.2966,2.0217-2.9474,3.4363-.6515,1.4147-.977,2.9302-.977,4.5475v.572c0,1.5954.32,3.0988.9599,4.5146.6402,1.4146,1.6338,2.5652,2.9811,3.4517,1.3475.8876,3.02,1.3314,5.019,1.3314,2.1333,0,3.9128-.5282,5.339-1.5834,1.4259-1.0552,2.3296-2.5038,2.7115-4.3458h-2.9304c-.2022.8986-.758,1.6568-1.6676,2.2737-.9092.618-2.0604.927-3.4526.927-1.3473,0-2.4647-.298-3.3515-.893-.8873-.595-1.5495-1.4026-1.9875-2.4249-.3746-.8748-.5877-1.8694-.6419-2.9816h14.3347v-1.4146Zm-11.7727-5.1195c.8643-.584,1.9369-.8755,3.217-.8755,1.19,0,2.2113.2575,3.0652.7747.853.5161,1.4873,1.2514,1.9031,2.2058.2741.6301.456,1.3329.5492,2.105h-11.1745c.1059-.6477.2721-1.2493.503-1.8015.4262-1.0223,1.072-1.8245,1.9368-2.4085Z"/>
  </g>
</svg>